<svg version="1.1" viewBox="0 0 640 512" xmlns="http://www.w3.org/2000/svg"><path d="m603.35.00012128c31.606-.045669 31.971 12.866 34.515 27.315 14.506 82.389-46.537 169.29-131.77 213.6 18.797-.99472 37.352-6.6586 53.158-14.432-47.456 78.637-93.153 128.83-214.82 137.64 17.634 22.721 35.441 17.712 57.627 19.175-8.5226 11.641-45.517 17.688-60.222 7.4778 12.257 26.235 12.527 34.144 8.7812 47.59-11.075-3.7653-10.431-19.322-36.664-27.748 8.8114 26.51 3.9612 34.258-1.0963 39.258-3.7379-6.6747-3.5252-26.27-18.495-34.898 11.165 27.443 5.9373 42.23.41437 53.26-7.4989-18.021-6.9969-37.494-17.236-53.129-27.28 30.176-54.517 65.133-81.892 85.015-18.675 18.989-27.662 14.511-12.456-8.4519 17.934-34.152 41.756-64.953 66.156-95.965-8.9739-22.91-22.132-27.171-40.88-29.118 4.4335-2.9472 14.299-10.589 32.209-4.4559-2.1757-7.6311-17.104-38.235-7.4017-50.405 3.5368 7.3902 3.571 14.375 12.79 22.329-3.5345-29.697 2.1367-54.518 16.342-61.803 1.4251 20.698-1.5022 25.949 15.812 50.34-8.4387-60.858 12.266-113.44 45.048-155.94-2.758 22.433-12.158 33.698-.78009 79.904 24.137-113.11 131.51-233.28 280.86-246.55zm-22.619 39.355c-97.464 37.778-237.33 206.79-259.54 318.68 40.997-67.819 126.85-211.31 280.73-304.8 20.999-20.893-4.3674-23.063-21.19-13.887z" fill="#ff6a00" fill-rule="evenodd" stroke="#000" stroke-linecap="square" stroke-linejoin="bevel" stroke-opacity="0" stroke-width="0"/><path d="m137.98 39.997c56.229 199.01 75.813 399.11-118.54 471.92 247.92-40.914 207.23-268.21 195.08-429.01h180.48l54.004-42.901zm-79.309 64.213c31.669 65.576 103.3 304.34-58.67 407.79 145.07-55.934 185.52-192.04 121.35-408.32zm-9.7337 64.492c39.348 86.255 38.128 204.89 6.9069 257.41 6.0754-70.899 3.0776-174.53-55.845-257.44z" fill="#fff" fill-rule="evenodd" stroke="#000" stroke-linecap="square" stroke-linejoin="bevel" stroke-opacity="0" stroke-width="0"/></svg>
