<svg width="122.88pt" height="122.88pt" version="1.1" viewBox="0 0 122.88 122.88" xmlns="http://www.w3.org/2000/svg"><path transform="matrix(.99673 .080753 -.080753 .99673 42.374 27.532)" d="m75.186 0c5.5032.034964 5.2855.57487 5.9728 4.8035-.1096 16.363-8.3323 29.417-23.233 37.016 3.2742-.1477 6.5127-1.1088 9.2755-2.4409-8.3695 13.629-16.394 22.308-37.59 23.677 3.0396 3.9805 6.147 3.1324 10.008 3.4173-1.4997 2.0156-7.9495 3.0184-10.496 1.2204 2.0986 4.5852 2.1349 5.9627 1.4645 8.2989-1.9233-.6707-1.7901-3.3787-6.3464-4.8817 1.4983 4.6283.6433 5.9711-.2441 6.8346-.6418-1.1674-.5782-4.5793-3.1731-6.1022 1.9068 4.7941.9766 7.3619 0 9.2751-1.2813-3.1484-1.1675-6.5386-2.9292-9.2751-4.7908 5.2178-9.5806 11.268-14.374 14.693-3.2775 3.2812-4.8361 2.4893-2.1573-1.4887 3.1688-5.9228 7.3585-11.254 11.649-16.621-1.5315-4.0016-3.8168-4.7616-7.0786-5.1261.77597-.5072 2.5041-1.8245 5.6141-.7322-.3685-1.3318-2.9263-6.6813-1.2205-8.7874.6058 1.2917.6023 2.5082 2.1968 3.9056-.5752-5.176.4459-9.4907 2.9292-10.74.2201 3.6061-.2967 4.5167 2.6849 8.7874-1.3869-10.609 2.2895-19.737 8.0551-27.094-.5106 3.9028-2.1626 5.8515-.2441 13.913 4.356-19.663 23.214-40.444 49.236-42.551zm-3.9917 6.8224c-14.766 6.4054-40.048 33.142-45.623 55.142 7.5923-11.468 29.847-39.252 49.294-52.695 3.6847-3.6096-.7292-4.022-3.6708-2.447z" fill="#ff6a00" fill-rule="evenodd" stroke="#000" stroke-linecap="square" stroke-linejoin="bevel" stroke-opacity="0" stroke-width="0"/><path transform="matrix(1 0 0 1 1.0665e-6 38.385)" d="m24.699 0c10.682 35.38 14.786 70.962-21.219 84.48 47.562-7.8088 38.144-48.172 34.92-76.8h39.086l11.1-7.68zm-14.196 11.495c5.6687 11.739 18.49 54.482-10.502 73 25.967-10.013 33.208-34.378 21.722-73.095zm-1.7423 11.545c7.0433 15.441 6.825 36.679 1.2363 46.08 1.0875-12.692.55089-31.244-9.9963-46.085z" fill="#fff" fill-rule="evenodd" stroke="#000" stroke-linecap="square" stroke-linejoin="bevel" stroke-opacity="0" stroke-width="0"/></svg>
