<svg version="1.1" viewBox="0 0 640 512" xmlns="http://www.w3.org/2000/svg"><path d="m615.08 4.981e-7c24.156 2.1114 23.558 12.003 24.521 23.218 5.4905 63.946-47.059 126.21-115.2 154.28 14.432.5163 28.996-2.552 41.603-7.4186-41.605 56.871-79.935 92.127-173.51 90.598 11.933 18.561 25.881 15.942 42.736 18.567-7.3034 8.3175-35.985 10.426-46.529 1.6249 7.585 20.881 7.2543 26.943 3.4788 36.964-8.2079-3.6295-6.6593-15.474-26.134-23.695 4.9333 20.857.70065 26.449-3.5037 29.926-2.4032-5.3546-.90994-20.315-11.764-27.925 6.6682 21.73 1.6695 32.675-3.3001 40.729-4.5068-14.281-2.8008-29.128-9.564-41.771-22.896 21.208-46.084 46.072-68.354 59.407-15.561 13.243-22.124 9.2106-8.9445-7.3047 16.024-24.881 36.32-46.801 57.072-68.843-5.302-18.117-15.068-22.267-29.263-25.028 3.5882-1.9512 11.646-7.121 24.916-1.218-1.1444-5.9794-10.474-30.38-2.2334-39.022 2.2009 5.8877 1.7527 11.228 8.258 17.932-.68443-22.934 5.335-41.517 16.685-46.12-.31646 15.914-2.9101 19.728 8.6646 39.543-2.3161-47.08 17.077-85.855 45.015-116.11-3.631 16.956-11.579 24.926-6.0222 61.009 26.126-84.795 116.34-169.34 231.37-169.34zm-19.958 28.539c-77.046 22.251-195.41 141.91-219.98 225.91 35.935-49.043 111.29-152.87 235.23-213.86 17.466-14.54-1.7714-17.921-15.25-12.051z" fill="#ff6a00" fill-rule="evenodd" stroke="#000" stroke-linecap="square" stroke-linejoin="bevel" stroke-opacity="0" stroke-width="0"/><path d="m137.98 39.997c59.676 197.64 82.604 396.4-118.54 471.92 265.71-43.621 213.09-269.1 195.08-429.01h195.48l45-42.901zm-79.308 64.213c31.669 65.576 103.3 304.34-58.67 407.79 145.07-55.934 185.52-192.04 121.35-408.32zm-9.7336 64.492c39.348 86.255 38.128 204.89 6.9068 257.41 6.0754-70.899 3.0776-174.53-55.845-257.44z" fill="#fff" fill-rule="evenodd" stroke="#000" stroke-linecap="square" stroke-linejoin="bevel" stroke-opacity="0" stroke-width="0"/></svg>
