<svg width="122.88pt" height="122.88pt" version="1.1" viewBox="0 0 122.88 122.88" xmlns="http://www.w3.org/2000/svg"><path transform="matrix(1 0 0 1 -.231 30.24)" d="m41.475 93.12h-19.452c6.2976-.4042 9.4221-3.923 9.3735-10.558-.0237-7.3569 4.7604-9.2415 8.8135-9.3848h56.977c9.5599-.5959 10.854 3.4624 10.793 9.3848-1.098 5.3428-3.163 9.5706-10.793 10.558m-66.467-46.08 7.0144.004v4.1786h-7.0242zm.0391-11.217 9.6733-.0274v-4.0853l-9.6733-.03zm29.317 11.217c5.2517 7.8283 17.622 2.7061 37.112-15.367l-.0158 21.092c.5035 9.719-5.1662 12.464-13.065 12.692l-48.314-.0222c-6.9837.2478-9.5053 4.6136-9.6638 9.6195-.2282 4.6521.9458 12.261-5.4284 13.842-1.0348-.014-5.8498 1.0746-5.1617-10.323s13.672-54.517-3.6906-56.718c-9.7916-1.1484-11.18-5.4845-11.848-10.675.14288-5.5642 1.9413-10.705 10.038-11.18l51.282 4.1078e-15c-5.2549 5.755-9.0549 12.211-12.36 20.4-.9985 3.2308-6.3059 14.842-.1201 18.96-12.106 22.639-8.3605 25.199 11.236 7.68zm-17.225-30.72-12.131-.0049v4.1387l12.11-.0308z" fill="#fff" fill-rule="evenodd" stroke="#000" stroke-linecap="square" stroke-linejoin="bevel" stroke-opacity="0" stroke-width="0"/><path transform="matrix(1 0 0 1 45.833 -2.8973e-6)" d="m71.375 0c5.2242.033192 5.0176.54573 5.67 4.56.1339 8.2653-3.6658 20.126-11.585 27.6-2.9777 2.9034-5.846 5.2759-10.47 7.5393 3.1083-.1402 6.1826-1.0526 8.8054-2.3172-3.9732 7.4192-9.6397 13.684-12.513 16.22-2.7785 3.0828-7.7218 5.0138-14.83 5.793-3.7214.5022-6.502.6567-8.3419.4634 2.8855 3.7788 5.8354 2.9737 9.5005 3.2441-1.4237 1.9135-7.5465 2.8654-9.964 1.1586 1.9923 4.3528 2.0267 5.6604 1.3903 7.8782-1.8258-.6367-1.6994-3.2074-6.0247-4.6342 1.4223 4.3937.6107 5.6684-.2317 6.4881-.6093-1.1082-.5489-4.3472-3.0123-5.7929 1.8101 4.5511.9271 6.9888 0 8.805-1.2164-2.9888-1.1083-6.2072-2.7807-8.805-4.548 4.9534-9.095 10.697-13.645 13.948-3.1114 3.1149-4.591 2.3631-2.048-1.4132 3.0082-5.6226 6.9855-10.684 11.059-15.779-1.4539-3.7987-3.6233-4.5202-6.7198-4.8662.73664-.4815 2.3772-1.7321 5.3295-.6951-.3498-1.2643-2.778-6.3427-1.1586-8.342.57506 1.2262.57176 2.3811 2.0855 3.7076-.5461-4.9136.4233-9.0096 2.7807-10.196.2089 3.4233-.2817 4.2878 2.5488 8.342-1.3166-10.071 2.1734-18.736 7.6468-25.721-.4847 3.705-2.053 5.5549-.2317 13.208 1.85-5.4088 5.3775-14.907 11.591-21.805 4.6558-4.9491 7.7186-7.716 15.265-12.279 3.9196-2.0578 9.7471-5.6006 19.884-6.3107zm-3.7894 6.4766c-14.018 6.0807-38.018 31.462-43.311 52.347 7.2075-10.886 28.334-37.263 46.795-50.024 3.498-3.4266-.6922-3.8181-3.4847-2.323z" fill="#ff6a00" fill-rule="evenodd" stroke="#000" stroke-linecap="square" stroke-linejoin="bevel" stroke-opacity="0" stroke-width="0"/></svg>
